<?xml version="1.0" encoding="utf-8"?>
<!-- Generator: Adobe Illustrator 21.1.0, SVG Export Plug-In . SVG Version: 6.00 Build 0)  -->
<svg version="1.1" id="Layer_1" xmlns="http://www.w3.org/2000/svg" xmlns:xlink="http://www.w3.org/1999/xlink" x="0px" y="0px"
	 viewBox="0 0 1080 1080" style="enable-background:new 0 0 1080 1080;" xml:space="preserve">
<style type="text/css">
	.st0{fill:#FFFFFF;}
</style>
<title>KatrGames Logo</title>
<g>
	<path class="st0" d="M529.8,765.1c0-129.8,105.5-235.3,235.3-235.3c26,0,51.8,4.3,76.3,12.7l75.7-75.7
		c40.4-40.2,63.1-94.9,62.9-152C980,196.4,883.6,100,765.1,100c-57-0.2-111.8,22.5-152,62.9L171.2,604.8l0,0l-7.7,7.7
		c-40.8,40.3-63.7,95.2-63.6,152.6C100,883.6,196.4,980,314.9,980c57.3,0.2,112.3-22.8,152.5-63.6l6.7-6.8l0,0l68.3-68.3
		C534.1,816.8,529.8,791,529.8,765.1z"/>
</g>
<path class="st0" d="M861.7,573.1L573.2,861.7C608.6,931.8,681.3,980,765.1,980C883.6,980,980,883.6,980,765.1
	C980,681.3,931.8,608.6,861.7,573.1z"/>
<path class="st0" d="M138.2,587l7.6-7.6l361.1-361.1C471.4,148.2,398.7,100,314.9,100C196.4,100,100,196.4,100,314.9v320.4
	C110.6,617.8,123.4,601.6,138.2,587z"/>
</svg>
