<svg id="Layer_1" data-name="Layer 1" xmlns="http://www.w3.org/2000/svg" viewBox="0 0 6480.82 1080"><defs><style>.cls-1{fill:#231f20;}</style></defs><title>KatrGames Logo</title><path class="cls-1" d="M1406,822.08q-34.49,0-53.28-19.2t-18.81-53.67V328.46q0-36,18.81-54.46T1406,255.59q35.26,0,53.67,18.41t18.41,54.46V499.27h1.57l190.4-210a125.68,125.68,0,0,1,31.73-24.68q16.84-9,38-9,32.91,0,47.4,16.85a53.67,53.67,0,0,1,13.32,39.18q-1.17,22.33-18.41,41.13L1592.49,554.11V495.35l199,224.87q20.37,22.73,20.37,46.62t-16.06,39.57q-16.07,15.66-47.4,15.67-26.65,0-42.7-10.58t-34.87-31.73l-191.18-213.9h-1.57V749.21q0,34.49-18,53.67T1406,822.08Z"/><path class="cls-1" d="M1900.41,822.08q-24.3,0-40.74-11.36a47.79,47.79,0,0,1-20.37-31.34q-3.93-20,7.05-45.05l195.1-420q14.11-30.56,34.87-44.66t47.4-14.1q26.63,0,46.62,14.1t34.87,44.66l195.1,420q12.53,25.09,9,45.44t-19.59,31.34q-16.07,11-39.57,11-31.35,0-48.19-14.1t-30.16-45.44L2229.49,663l54.85,40H1961.53l55.63-40-42.31,99.51q-14.1,31.35-29,45.44T1900.41,822.08Zm221.73-409-90.89,217-21.94-37.61h228l-21.94,37.61-91.67-217Z"/><path class="cls-1" d="M2612.62,822.08q-34.49,0-53.28-19.2t-18.81-53.67v-369h-123q-29,0-44.27-15.28T2358,321.41q0-29,15.28-43.88t44.27-14.89h390.19q29,0,44.27,14.89t15.28,43.88q0,28.21-15.28,43.49t-44.27,15.28h-123v369q0,34.49-18,53.67T2612.62,822.08Z"/><path class="cls-1" d="M2987.14,822.08q-34.49,0-53.28-19.2t-18.81-53.67V335.51q0-35.26,19.2-54.06t53.67-18.8h192.75q94,0,145.34,45.84t51.32,127.32q0,52.5-23.11,91.28t-66.6,59.55q-43.48,20.77-106.95,20.76l6.27-14.1h37.61q33.68,0,59.55,16.06t43.09,49l39.18,70.52q12.53,22.73,11.75,44.27t-16.85,35.26q-16.07,13.7-46.62,13.71t-49.75-12.54q-19.21-12.53-34.08-39.18l-71.3-130.85q-9.4-17.22-23.9-23.9t-33.3-6.66h-43.09V749.21q0,34.49-18,53.67T2987.14,822.08Zm72.08-315h95.59q41.52,0,63.47-16.45t21.94-50.93q0-32.91-21.94-49.75t-63.47-16.85h-95.59Z"/><path class="cls-1" d="M3974.36,823.64q-94.81,0-161-35.26t-100.68-98.72q-34.49-63.46-34.47-148.08,0-65.82,20.76-118.7T3758.9,332q39.17-38,96-58t128.89-20a444.56,444.56,0,0,1,79.92,7.44,283.46,283.46,0,0,1,79.92,27.82q20.37,9.4,27.82,26.25a62.78,62.78,0,0,1,4.7,35.26,78.9,78.9,0,0,1-13.32,33.69,50.44,50.44,0,0,1-28.6,20.37q-18,5.1-40.74-5.09a238.22,238.22,0,0,0-50.93-16.85,276.25,276.25,0,0,0-58-5.88q-52.5,0-87.36,18.8t-52.1,55.63q-17.24,36.84-17.24,90.1,0,79.92,39.17,120.66T3983,703a309.53,309.53,0,0,0,51.32-4.7,444.66,444.66,0,0,0,56-13.32L4063.68,739V605h-54.85q-26.65,0-41.13-13.32t-14.5-37.61q0-24.28,14.5-37.22T4008.84,504h116q27.42,0,41.92,14.49t14.49,41.92V733.54q0,23.51-9.79,40T4140.47,797a496.9,496.9,0,0,1-79.92,19.59A532.83,532.83,0,0,1,3974.36,823.64Z"/><path class="cls-1" d="M4303.44,822.08q-24.3,0-40.74-11.36a47.79,47.79,0,0,1-20.37-31.34q-3.93-20,7.05-45.05l195.1-420q14.11-30.56,34.87-44.66t47.4-14.1q26.63,0,46.62,14.1t34.87,44.66l195.1,420q12.53,25.09,9,45.44t-19.59,31.34q-16.07,11-39.57,11-31.35,0-48.19-14.1t-30.16-45.44L4632.51,663l54.85,40H4364.55l55.63-40-42.31,99.51q-14.1,31.35-29,45.44T4303.44,822.08Zm221.73-409-90.89,217-21.94-37.61h228l-21.94,37.61-91.67-217Z"/><path class="cls-1" d="M4942,822.08q-31.35,0-48.19-17.24T4877,756.26V321.41q0-32.12,18-49t50.93-16.85q27.42,0,43.48,10.58T5018.78,301l168.46,302.44h-27.42L5327.48,301q14.11-24.28,30.17-34.87t43.48-10.58q31.33,0,48.19,16.85t16.85,49V756.26q0,31.35-16.45,48.58t-48.58,17.24q-31.35,0-48.18-17.24t-16.85-48.58V486.73h16.45L5226.41,706.11q-11,17.24-23.11,25.86t-32.52,8.62q-19.6,0-32.12-8.62t-22.72-25.86L4989,485.95h18V756.26q0,31.35-16.45,48.58T4942,822.08Z"/><path class="cls-1" d="M5643.23,815q-36.84,0-56-19.2T5568,740.59V337.08q0-36,19.2-55.24t56-19.19h265.61q28.21,0,42.31,14.1t14.1,40.74q0,27.44-14.1,41.92t-42.31,14.5H5705.91v105h185.69q27.42,0,41.92,14.1t14.5,41.53q0,27.44-14.5,41.53t-41.92,14.1H5705.91V703.77h202.93q28.21,0,42.31,14.49t14.1,41.13q0,27.44-14.1,41.53T5908.84,815Z"/><path class="cls-1" d="M6246.55,823.64a523.53,523.53,0,0,1-65.42-4.31,441.74,441.74,0,0,1-64.64-12.93A333.69,333.69,0,0,1,6061.63,786q-21.15-10.17-29.77-27a60.12,60.12,0,0,1-6.27-35.65,68.12,68.12,0,0,1,13.32-33.3,53.61,53.61,0,0,1,29-19.59q18-5.09,40.74,5.09,29.77,14.1,67.38,21.94t70.52,7.84q51.71,0,72.47-13.71t20.76-34.08q0-18-14.5-29T6274,609.74l-91.67-19.59q-75.22-15.66-112-54.85t-36.83-101.07q0-40.73,16.85-74a163.17,163.17,0,0,1,47.79-56.81Q6129,279.88,6171.72,267t95.2-12.93a393.17,393.17,0,0,1,82.66,9q41.9,9,72.48,27,18,9.4,25.86,25.86a64.77,64.77,0,0,1,6.27,34.08A56.78,56.78,0,0,1,6442,381q-10.58,13.33-28.21,17.63t-41.92-5.88q-22.73-10.18-51.32-15.28a315.47,315.47,0,0,0-55.24-5.09q-29,0-49.36,6.66T6185,398.19a43.63,43.63,0,0,0-10.58,29q0,16.45,13.71,27.82t50.54,19.2l90.89,19.59q76,16.45,113.61,54.06t37.61,97.94q0,40.75-16.45,73.65a158.44,158.44,0,0,1-47,56q-30.56,23.12-73.65,35.65T6246.55,823.64Z"/><path class="cls-1" d="M816.24,1080C961.68,1080,1080,961.68,1080,816.24c0-114.92-73.88-212.88-176.63-249L567.28,903.37C603.35,1006.12,701.32,1080,816.24,1080Z"/><path class="cls-1" d="M527.52,816.24C527.52,657,657,527.52,816.24,527.52a287.49,287.49,0,0,1,93.65,15.6l92.86-92.86A262,262,0,0,0,1080,263.76C1080,118.32,961.68,0,816.24,0A262,262,0,0,0,629.73,77.25L87.42,619.57l0,0L78,629A261.92,261.92,0,0,0,0,816.24C0,961.68,118.32,1080,263.76,1080a261.93,261.93,0,0,0,187.19-78l8.26-8.31,0,0,83.87-83.87A287.49,287.49,0,0,1,527.52,816.24Z"/><path class="cls-1" d="M50.93,620.8l9.41-9.44,447.5-447.5C468.39,67.81,373.85,0,263.76,0,118.32,0,0,118.32,0,263.76v434.7A287.85,287.85,0,0,1,51.12,621Z"/></svg>