<svg xmlns="http://www.w3.org/2000/svg" id="Layer_1" data-name="Layer 1" viewBox="0 0 1080 1080"><defs fill="#240750"><style>.cls-1{fill:#240750;}</style></defs><title>KatrGames Logo</title><path class="cls-1" d="M816.24,1080C961.68,1080,1080,961.68,1080,816.24c0-114.92-73.88-212.88-176.63-249L567.28,903.37C603.35,1006.12,701.32,1080,816.24,1080Z" fill="#240750"/><path class="cls-1" d="M527.52,816.24C527.52,657,657,527.52,816.24,527.52a287.49,287.49,0,0,1,93.65,15.6l92.86-92.86A262,262,0,0,0,1080,263.76C1080,118.32,961.68,0,816.24,0A262,262,0,0,0,629.73,77.25L87.42,619.57l0,0L78,629A261.92,261.92,0,0,0,0,816.24C0,961.68,118.32,1080,263.76,1080a261.93,261.93,0,0,0,187.19-78l8.26-8.31,0,0,83.87-83.87A287.49,287.49,0,0,1,527.52,816.24Z" fill="#240750"/><path class="cls-1" d="M50.93,620.8l9.41-9.44,447.5-447.5C468.39,67.81,373.85,0,263.76,0,118.32,0,0,118.32,0,263.76v434.7A287.85,287.85,0,0,1,51.12,621Z" fill="#240750"/></svg>